<svg xmlns="http://www.w3.org/2000/svg" width="214" height="128" viewBox="0 0 214 128"><g fill="none" fill-rule="evenodd"><path d="M0 0h214v128H0z"></path><g fill="#C00"><path d="M201.647 93.847h11.416V24.45h-11.416v69.398zM91.779 22l-1.68 3.63-27.417 57.333-26.702-57.32L34.339 22l-1.681 3.63L1.12 91.577 0 93.991h12.312l.47-1.043 7.776-17.397H47.33l7.6 17.385.463 1.056h14.364l.468-1.043 7.778-17.398h26.769l7.603 17.386.463 1.056h12.385l-.004-.015h.17l9.419-42.486L156.935 95l22.09-44.092 9.403 43.07h10.868l-17.311-71.57-25.168 50.67-24.981-50.68-13.426 56.887-24.99-53.642L91.778 22zm-.22 23.506l8.721 19.874H82.631l8.927-19.874h.001zm-57.442 0l8.717 19.874H25.188l8.927-19.874h.002z"></path></g></g></svg>